<?xml version="1.0" encoding="UTF-8"?>
<svg width="300" height="200" viewBox="0 0 300 200" fill="none" xmlns="http://www.w3.org/2000/svg">
  <!-- 驾照背景 -->
  <rect x="40" y="50" width="220" height="100" rx="8" fill="#3498db" opacity="0.7"/>
  
  <!-- 驾照标题 -->
  <text x="65" y="75" font-family="Arial" font-size="14" fill="white" font-weight="bold">DRIVER LICENSE</text>
  
  <!-- 照片区域 -->
  <rect x="50" y="80" width="60" height="60" rx="2" fill="#ffffff" opacity="0.9"/>
  <circle cx="80" cy="100" r="15" stroke="#3498db" stroke-width="2" fill="#f0f0f0"/>
  <circle cx="80" cy="95" r="5" fill="#3498db"/>
  <rect x="70" y="105" width="20" height="10" rx="5" fill="#3498db"/>
  
  <!-- 信息文本 -->
  <rect x="130" y="80" width="110" height="5" rx="2" fill="#ffffff"/>
  <rect x="130" y="95" width="90" height="5" rx="2" fill="#ffffff"/>
  <rect x="130" y="110" width="100" height="5" rx="2" fill="#ffffff"/>
  <rect x="130" y="125" width="80" height="5" rx="2" fill="#ffffff"/>
  
  <!-- 底部车辆图标 -->
  <path d="M220 115 L240 115 L235 125 L225 125 Z" fill="#ffffff" opacity="0.8"/>
  <circle cx="227" cy="125" r="3" fill="#ffffff" opacity="0.8"/>
  <circle cx="233" cy="125" r="3" fill="#ffffff" opacity="0.8"/>
  
  <!-- 驾照类别 -->
  <text x="210" y="75" font-family="Arial" font-size="12" fill="white" text-anchor="start">Class B</text>
</svg> 