<?xml version="1.0" encoding="UTF-8"?>
<svg width="300" height="200" viewBox="0 0 300 200" fill="none" xmlns="http://www.w3.org/2000/svg">
  <!-- 毕业证书背景 -->
  <rect x="50" y="40" width="200" height="120" rx="0" fill="#f8f5e9" stroke="#3498db" stroke-width="4"/>
  
  <!-- 内边框 -->
  <rect x="60" y="50" width="180" height="100" rx="0" fill="none" stroke="#3498db" stroke-width="1" stroke-dasharray="2 2"/>
  
  <!-- 学校徽章 -->
  <circle cx="150" cy="75" r="15" fill="#3498db" opacity="0.7"/>
  <path d="M145 65 L155 65 L155 85 L145 85 Z" fill="#f8f5e9"/>
  <path d="M140 73 L160 73 L160 77 L140 77 Z" fill="#f8f5e9"/>
  
  <!-- 标题 -->
  <text x="150" y="105" font-family="serif" font-size="12" fill="#3498db" text-anchor="middle" font-weight="bold">CERTIFICATE OF GRADUATION</text>
  
  <!-- 内容文本 -->
  <rect x="80" y="115" width="140" height="3" rx="1" fill="#3498db" opacity="0.5"/>
  <rect x="80" y="125" width="140" height="3" rx="1" fill="#3498db" opacity="0.5"/>
  <rect x="80" y="135" width="100" height="3" rx="1" fill="#3498db" opacity="0.5"/>
  
  <!-- 左下角印章 -->
  <circle cx="90" cy="140" r="10" stroke="#3498db" stroke-width="1" fill="none"/>
  <path d="M85 135 L95 145 M85 145 L95 135" stroke="#3498db" stroke-width="1"/>
  
  <!-- 装饰角 -->
  <path d="M50 40 L70 40 L70 60" stroke="#3498db" stroke-width="2" fill="none"/>
  <path d="M250 40 L230 40 L230 60" stroke="#3498db" stroke-width="2" fill="none"/>
  <path d="M50 160 L70 160 L70 140" stroke="#3498db" stroke-width="2" fill="none"/>
  <path d="M250 160 L230 160 L230 140" stroke="#3498db" stroke-width="2" fill="none"/>
</svg> 